<svg width="170" height="200" viewBox="0 0 170 200" fill="none" xmlns="http://www.w3.org/2000/svg">
<g clip-path="url(#clip0_19_1356)">
<path d="M120.435 167.836L122.11 200C122.11 200 51.2516 132.558 42.4239 112.826C33.5962 93.0932 50.2131 44.281 50.2131 44.281L87.0819 64.5329L120.435 167.836Z" fill="#9F616A"/>
<path d="M11.7864 30.7801L0.881586 31.8186C0.881586 31.8186 -4.8305 44.2813 12.825 45.3199L11.7864 30.7801Z" fill="#9F616A"/>
<path d="M11.7864 49.993L0.881593 51.0316C0.881593 51.0316 -4.83049 63.4943 12.825 64.5329L11.7864 49.993Z" fill="#9F616A"/>
<path d="M11.7864 70.7642L0.881593 71.8028C0.881593 71.8028 -4.83049 84.2655 12.825 85.304L11.7864 70.7642Z" fill="#9F616A"/>
<path d="M14.9021 91.5354L3.99727 92.5739C3.99727 92.5739 -1.71481 105.037 15.9407 106.075L14.9021 91.5354Z" fill="#9F616A"/>
<path d="M6.47749 35.7864H7.30493V13.1192C7.30493 11.3964 7.64426 9.6904 8.30356 8.0987C8.96286 6.50701 9.92921 5.06076 11.1474 3.84253C12.3657 2.6243 13.8119 1.65795 15.4036 0.998645C16.9953 0.339343 18.7013 1.31996e-06 20.4241 0H68.4478C70.1706 -3.51981e-06 71.8766 0.339332 73.4683 0.998629C75.06 1.65793 76.5062 2.62428 77.7244 3.8425C78.9427 5.06073 79.909 6.50697 80.5683 8.09866C81.2276 9.69035 81.567 11.3963 81.567 13.1192V137.473C81.567 139.196 81.2276 140.902 80.5684 142.494C79.9091 144.086 78.9427 145.532 77.7245 146.75C76.5062 147.968 75.06 148.935 73.4683 149.594C71.8766 150.253 70.1706 150.593 68.4478 150.593H20.4242C16.9447 150.593 13.6078 149.211 11.1475 146.75C8.68716 144.29 7.30495 140.953 7.30494 137.474V51.9214H6.47749V35.7864Z" fill="#212324"/>
<path d="M19.8948 3.41366H26.1635C25.8752 4.12043 25.7652 4.88725 25.8431 5.64656C25.921 6.40588 26.1844 7.13439 26.6102 7.76791C27.0359 8.40144 27.6109 8.92054 28.2846 9.27948C28.9582 9.63843 29.7098 9.8262 30.4731 9.82626H57.9852C58.7485 9.8262 59.5001 9.63843 60.1737 9.27949C60.8474 8.92054 61.4224 8.40144 61.8482 7.76792C62.2739 7.13439 62.5374 6.40588 62.6152 5.64656C62.6931 4.88724 62.5831 4.12042 62.2948 3.41365H68.1498C70.7482 3.41365 73.2401 4.44585 75.0775 6.28319C76.9148 8.12053 77.947 10.6125 77.947 13.2109V137.383C77.947 138.669 77.6936 139.943 77.2013 141.132C76.7089 142.321 75.9873 143.401 75.0775 144.311C74.1677 145.22 73.0877 145.942 71.899 146.434C70.7104 146.927 69.4364 147.18 68.1498 147.18H19.8948C18.6082 147.18 17.3342 146.927 16.1456 146.434C14.9569 145.942 13.8769 145.22 12.9671 144.311C12.0574 143.401 11.3357 142.321 10.8433 141.132C10.351 139.943 10.0976 138.669 10.0976 137.383V137.383V13.2109C10.0976 11.9243 10.351 10.6503 10.8433 9.46166C11.3357 8.27301 12.0574 7.19296 12.9671 6.2832C13.8769 5.37345 14.9569 4.65178 16.1456 4.15943C17.3342 3.66707 18.6082 3.41366 19.8948 3.41366Z" fill="white"/>
<path d="M54.3608 38.2002H33.6837V43.1898H54.3608V38.2002Z" fill="#008C21"/>
<path d="M55.3452 59.6403H32.6993V64.6298H55.3452V59.6403Z" fill="#F0F4F7"/>
<path d="M69.2939 70.3581H18.7506V75.3476H69.2939V70.3581Z" fill="#F0F4F7"/>
<path d="M69.2939 81.0762H18.7506V86.0658H69.2939V81.0762Z" fill="#F0F4F7"/>
<path d="M169.351 184.588L111.228 118.278L109.151 75.6974L87.3415 39.3478L81.1102 23.7695C81.1102 23.7695 66.5704 25.3273 78.5138 54.9262L83.4469 70.7642C79.0001 80.342 76.6963 90.7747 76.6963 101.335V137.627C76.6963 146.173 117.42 192.722 122.161 199.832L169.351 184.588Z" fill="#9F616A"/>
<path opacity="0.2" d="M82.82 42.428L87.1557 40.2972L87.008 39.9963L83.0019 41.9653L76.9545 26.1103L76.6415 26.2299L82.82 42.428Z" fill="#212324"/>
<path opacity="0.2" d="M0.939669 31.6606L0.823845 31.975L7.24683 34.341L7.36265 34.0266L0.939669 31.6606Z" fill="#212324"/>
<path opacity="0.2" d="M0.939669 51.0928L0.823845 51.4073L7.24683 53.7733L7.36265 53.4588L0.939669 51.0928Z" fill="#212324"/>
<path opacity="0.2" d="M0.939669 71.8653L0.823845 72.1797L7.24683 74.5457L7.36265 74.2313L0.939669 71.8653Z" fill="#212324"/>
<path opacity="0.2" d="M4.3047 92.6438L4.15975 92.9458L7.28683 94.4467L7.43178 94.1447L4.3047 92.6438Z" fill="#212324"/>
<path d="M44.0478 129.126C52.047 129.126 58.5316 122.642 58.5316 114.643C58.5316 106.643 52.047 100.159 44.0478 100.159C36.0487 100.159 29.5641 106.643 29.5641 114.643C29.5641 122.642 36.0487 129.126 44.0478 129.126Z" fill="#008C21"/>
<path d="M42.6675 120.756L38.3328 115.182L40.8536 113.221L42.9061 115.86L49.8404 108.54L52.1592 110.737L42.6675 120.756Z" fill="white"/>
</g>
<defs>
<clipPath id="clip0_19_1356">
<rect width="169.351" height="200" fill="white"/>
</clipPath>
</defs>
</svg>
