<svg width="24" height="24" viewBox="0 0 24 24" fill="none" xmlns="http://www.w3.org/2000/svg">
<path d="M21.4078 11.3564L20.1853 11.1595C20.1064 11.1462 20.0338 11.108 19.9781 11.0505C19.9224 10.993 19.8866 10.9192 19.8759 10.8398C19.8525 10.6898 19.8291 10.5394 19.7962 10.3941C19.7804 10.3161 19.7895 10.235 19.8223 10.1625C19.8551 10.0899 19.91 10.0296 19.9791 9.99001L21.0614 9.38907C21.1433 9.34718 21.2071 9.27679 21.2408 9.19116C21.2745 9.10552 21.2757 9.01054 21.2442 8.92407L21.0567 8.40844C21.0254 8.32174 20.9629 8.24976 20.8815 8.20646C20.8001 8.16316 20.7055 8.15161 20.6161 8.17407L19.4025 8.40844C19.3236 8.42372 19.2419 8.41324 19.1694 8.37855C19.0969 8.34386 19.0375 8.28681 18.9998 8.21579C18.9295 8.08454 18.8545 7.95313 18.7748 7.82157C18.7328 7.75316 18.7133 7.67324 18.7192 7.59314C18.7251 7.51305 18.756 7.43684 18.8077 7.37532L19.6181 6.44063C19.681 6.37375 19.7171 6.28614 19.7197 6.1944C19.7223 6.10265 19.6912 6.01314 19.6322 5.94282L19.2811 5.52094C19.2226 5.44999 19.1397 5.40342 19.0487 5.39033C18.9577 5.37724 18.865 5.39857 18.7889 5.45016L17.7253 6.08907C17.6569 6.12958 17.5775 6.14733 17.4984 6.13975C17.4192 6.13217 17.3446 6.09965 17.2852 6.04688C17.1727 5.94797 17.0555 5.84954 16.9383 5.75532C16.8759 5.70579 16.831 5.63772 16.8099 5.56095C16.7889 5.48417 16.7928 5.40269 16.8211 5.32829L17.2617 4.16813C17.2992 4.08396 17.3044 3.98893 17.2763 3.90118C17.2482 3.81342 17.1888 3.73909 17.1094 3.69235L16.6312 3.41532C16.5515 3.37001 16.4578 3.35553 16.3681 3.37462C16.2783 3.39371 16.1987 3.44505 16.1442 3.51891L15.3642 4.49579C15.3206 4.55727 15.2576 4.60227 15.1853 4.62353C15.113 4.6448 15.0357 4.64108 14.9658 4.61297C14.9658 4.61297 14.7033 4.50516 14.5064 4.43907C14.4309 4.4139 14.3653 4.36537 14.3193 4.30048C14.2732 4.23559 14.2489 4.15772 14.25 4.07813L14.2687 2.83829C14.2743 2.74607 14.2459 2.65502 14.1889 2.58231C14.1319 2.5096 14.0502 2.46026 13.9594 2.4436L13.4161 2.34985C13.3251 2.3341 13.2316 2.35214 13.153 2.40057C13.0745 2.44901 13.0163 2.52449 12.9895 2.61282L12.5864 3.78704C12.5605 3.86272 12.5112 3.92816 12.4455 3.97378C12.3798 4.0194 12.3012 4.04283 12.2212 4.04063H11.7619C11.682 4.04232 11.6037 4.01869 11.5381 3.97314C11.4725 3.92758 11.423 3.86244 11.3967 3.78704L10.9936 2.61282C10.9668 2.52449 10.9087 2.44901 10.8301 2.40057C10.7515 2.35214 10.658 2.3341 10.567 2.34985L10.0237 2.4436C9.93288 2.46026 9.85125 2.5096 9.79426 2.58231C9.73727 2.65502 9.70885 2.74607 9.71437 2.83829L9.73312 4.07813C9.73426 4.15791 9.70991 4.23598 9.66363 4.30097C9.61735 4.36597 9.55154 4.41451 9.47578 4.43954C9.36797 4.48172 9.13359 4.57126 9.02109 4.61344C8.88984 4.66032 8.73515 4.62282 8.60859 4.47704L7.83468 3.5236C7.77997 3.45004 7.70021 3.39908 7.61047 3.38034C7.52073 3.3616 7.42724 3.37637 7.34765 3.42188L6.86953 3.69891C6.78992 3.74476 6.73008 3.81843 6.70152 3.90574C6.67296 3.99306 6.67771 4.08785 6.71484 4.17188L7.15547 5.33204C7.18335 5.40649 7.18703 5.48785 7.16599 5.56452C7.14495 5.64119 7.10026 5.70927 7.03828 5.75907C6.92109 5.85282 6.8039 5.95172 6.6914 6.05063C6.63197 6.1034 6.55732 6.13592 6.47821 6.1435C6.39909 6.15108 6.31962 6.13333 6.25125 6.09282L5.20312 5.44407C5.1266 5.39371 5.03428 5.37311 4.94361 5.38615C4.85294 5.39919 4.77017 5.44497 4.71093 5.51485L4.35984 5.93672C4.30086 6.00705 4.26971 6.09656 4.27231 6.1883C4.2749 6.28005 4.31104 6.36766 4.3739 6.43454L5.18437 7.36922C5.23707 7.43021 5.26872 7.50654 5.27463 7.58692C5.28054 7.6673 5.2604 7.74744 5.21719 7.81547C5.1375 7.94047 5.0625 8.07188 4.99218 8.20969C4.95396 8.28016 4.89443 8.33674 4.82211 8.37134C4.74979 8.40594 4.66839 8.4168 4.58953 8.40235L3.37593 8.16797C3.28653 8.14617 3.19222 8.158 3.11097 8.20122C3.02972 8.24444 2.9672 8.31602 2.93531 8.40235L2.74781 8.91797C2.71635 9.00444 2.71756 9.09943 2.75123 9.18507C2.7849 9.2707 2.84869 9.34108 2.93062 9.38297L4.01156 9.98438C4.08135 10.0232 4.1368 10.0834 4.16972 10.1562C4.20264 10.229 4.21128 10.3104 4.19437 10.3884C4.16625 10.5384 4.13812 10.6842 4.11468 10.8342C4.10343 10.9133 4.06745 10.9869 4.01188 11.0443C3.95631 11.1017 3.88401 11.1401 3.80531 11.1539L2.58281 11.3508C2.49184 11.362 2.408 11.4058 2.34681 11.474C2.28563 11.5423 2.25124 11.6304 2.25 11.722V12.2714C2.24886 12.3637 2.28243 12.4531 2.34407 12.5219C2.4057 12.5906 2.49091 12.6337 2.58281 12.6427L3.80531 12.8395C3.88425 12.8528 3.95686 12.891 4.01252 12.9485C4.06819 13.0061 4.10399 13.0799 4.11468 13.1592C4.13812 13.3092 4.16156 13.4597 4.19437 13.605C4.21023 13.683 4.20111 13.7641 4.16829 13.8366C4.13547 13.9091 4.08063 13.9695 4.01156 14.0091L2.92922 14.6109C2.84729 14.6528 2.78349 14.7232 2.74982 14.8089C2.71616 14.8945 2.71494 14.9895 2.7464 15.0759L2.9339 15.5916C2.96527 15.6783 3.0277 15.7503 3.10911 15.7936C3.19052 15.8369 3.2851 15.8484 3.37453 15.8259L4.58812 15.5916C4.66702 15.5763 4.74874 15.5868 4.82124 15.6215C4.89373 15.6561 4.95317 15.7132 4.99078 15.7842C5.06109 15.9155 5.13609 16.0469 5.21578 16.1784C5.25785 16.2469 5.27732 16.3268 5.27143 16.4069C5.26554 16.487 5.23459 16.5632 5.18297 16.6247L4.3725 17.5603C4.30964 17.6272 4.27349 17.7148 4.2709 17.8066C4.26831 17.8983 4.29945 17.9878 4.35844 18.0581L4.70953 18.48C4.76804 18.551 4.8509 18.5975 4.94193 18.6106C5.03295 18.6237 5.12559 18.6024 5.20172 18.5508L6.26531 17.9119C6.33368 17.8714 6.41316 17.8536 6.49227 17.8612C6.57138 17.8688 6.64604 17.9013 6.70547 17.9541C6.81797 18.053 6.93515 18.1514 7.05234 18.2456C7.11467 18.2952 7.15963 18.3632 7.1807 18.44C7.20176 18.5168 7.19785 18.5983 7.16953 18.6727L6.7289 19.8328C6.69201 19.9171 6.68738 20.012 6.7159 20.0995C6.74442 20.1869 6.80411 20.2609 6.88359 20.3072L7.36172 20.5842C7.44151 20.6295 7.53515 20.644 7.62491 20.6249C7.71466 20.6058 7.7943 20.5545 7.84875 20.4806L8.63578 19.5131C8.73422 19.3913 8.89359 19.3397 9.02015 19.3913C9.17953 19.4569 9.28734 19.4944 9.48422 19.5605C9.55998 19.5855 9.62579 19.634 9.67207 19.699C9.71835 19.764 9.74269 19.8421 9.74156 19.9219L9.72281 21.1617C9.71729 21.2539 9.7457 21.345 9.8027 21.4177C9.85969 21.4904 9.94132 21.5397 10.0322 21.5564L10.5755 21.6502C10.6664 21.6659 10.76 21.6479 10.8385 21.5994C10.9171 21.551 10.9752 21.4755 11.002 21.3872L11.4052 20.2153C11.431 20.1396 11.4804 20.0742 11.5461 20.0286C11.6118 19.983 11.6904 19.9595 11.7703 19.9617H12.2297C12.3095 19.96 12.3879 19.9837 12.4534 20.0292C12.519 20.0748 12.5685 20.1399 12.5948 20.2153L12.998 21.3872C13.0247 21.4755 13.0829 21.551 13.1615 21.5994C13.24 21.6479 13.3336 21.6659 13.4245 21.6502L13.9678 21.5564C14.0587 21.5397 14.1403 21.4904 14.1973 21.4177C14.2543 21.345 14.2827 21.2539 14.2772 21.1617L14.2584 19.9219C14.2573 19.8421 14.2816 19.764 14.3279 19.699C14.3742 19.634 14.44 19.5855 14.5158 19.5605C14.7127 19.4944 14.8439 19.4428 14.9658 19.3959C15.0877 19.3491 15.2377 19.3491 15.3548 19.4944L16.1517 20.4759C16.2064 20.5501 16.2865 20.6014 16.3767 20.6203C16.4669 20.6391 16.5608 20.6241 16.6406 20.5781L17.1187 20.3011C17.1988 20.2553 17.2589 20.1814 17.2875 20.0937C17.3161 20.0061 17.3111 19.9109 17.2734 19.8267L16.8328 18.6666C16.805 18.592 16.8013 18.5106 16.8223 18.4339C16.8434 18.3571 16.888 18.289 16.95 18.2391C17.0672 18.1453 17.1844 18.0469 17.2969 17.948C17.3563 17.8952 17.431 17.8627 17.5101 17.8551C17.5892 17.8475 17.6687 17.8653 17.737 17.9058L18.7969 18.5466C18.8734 18.5969 18.9657 18.6175 19.0564 18.6045C19.1471 18.5914 19.2298 18.5457 19.2891 18.4758L19.6402 18.0539C19.6991 17.9836 19.7303 17.8941 19.7277 17.8023C19.7251 17.7106 19.6889 17.623 19.6261 17.5561L18.8156 16.6214C18.7629 16.5604 18.7313 16.4841 18.7254 16.4037C18.7195 16.3233 18.7396 16.2432 18.7828 16.1752C18.8625 16.0486 18.9375 15.9172 19.0078 15.7809C19.046 15.7105 19.1056 15.6539 19.1779 15.6193C19.2502 15.5847 19.3316 15.5738 19.4105 15.5883L20.6241 15.8227C20.7135 15.8445 20.8078 15.8326 20.889 15.7894C20.9703 15.7462 21.0328 15.6746 21.0647 15.5883L21.2522 15.0727C21.2836 14.9862 21.2824 14.8912 21.2488 14.8056C21.2151 14.7199 21.1513 14.6496 21.0694 14.6077L19.987 14.0067C19.9172 13.9679 19.8618 13.9077 19.8289 13.8349C19.7959 13.7621 19.7873 13.6807 19.8042 13.6027C19.8323 13.4527 19.8605 13.3069 19.8839 13.1569C19.8952 13.0778 19.9311 13.0042 19.9867 12.9468C20.0423 12.8894 20.1146 12.851 20.1933 12.8372L21.4158 12.6403C21.5068 12.6291 21.5906 12.5853 21.6518 12.5171C21.713 12.4488 21.7474 12.3607 21.7486 12.2691V11.7188C21.7435 11.6279 21.7065 11.5418 21.6442 11.4755C21.5819 11.4093 21.4982 11.3671 21.4078 11.3564ZM12 5.25001C13.4972 5.24937 14.952 5.74713 16.135 6.66479C17.3179 7.58246 18.1618 8.86781 18.5334 10.3181C18.5611 10.4287 18.5632 10.5442 18.5395 10.6557C18.5158 10.7672 18.467 10.8719 18.3969 10.9617C18.3267 11.0516 18.2369 11.1242 18.1345 11.1742C18.032 11.2241 17.9195 11.2501 17.8055 11.25H12.8723C12.7398 11.25 12.6097 11.2149 12.4952 11.1483C12.3807 11.0817 12.2858 10.986 12.2203 10.8708L9.77812 6.57188C9.72125 6.47194 9.68813 6.36026 9.68131 6.24547C9.67448 6.13068 9.69415 6.01586 9.73878 5.90989C9.7834 5.80391 9.8518 5.70962 9.93869 5.63429C10.0256 5.55897 10.1286 5.50463 10.2398 5.47547C10.8144 5.32474 11.406 5.24895 12 5.25001ZM5.25 12C5.24916 11.0962 5.42983 10.2014 5.7813 9.36877C6.13277 8.5361 6.64789 7.7825 7.29609 7.15266C7.37794 7.07163 7.47736 7.01054 7.58662 6.97413C7.69589 6.93771 7.81208 6.92695 7.92617 6.94268C8.04027 6.95841 8.14921 7.00021 8.24455 7.06483C8.33989 7.12945 8.41906 7.21516 8.47593 7.31532L10.9247 11.625C10.9894 11.7383 11.0234 11.8665 11.0234 11.997C11.0234 12.1274 10.9894 12.2556 10.9247 12.3689L8.45578 16.6673C8.39846 16.7672 8.31892 16.8525 8.22332 16.9167C8.12772 16.9809 8.01863 17.0222 7.9045 17.0374C7.79036 17.0527 7.67426 17.0414 7.56518 17.0045C7.45609 16.9677 7.35696 16.9062 7.27547 16.8248C6.63358 16.196 6.12377 15.4453 5.77595 14.6168C5.42813 13.7882 5.24932 12.8986 5.25 12ZM12 18.75C11.3957 18.7516 10.7938 18.6735 10.2098 18.518C10.0986 18.4884 9.99573 18.4337 9.90907 18.358C9.82241 18.2823 9.75434 18.1877 9.71011 18.0814C9.66588 17.9752 9.64668 17.8602 9.65401 17.7454C9.66133 17.6306 9.69498 17.519 9.75234 17.4192L12.217 13.1278C12.2829 13.0136 12.3778 12.9189 12.492 12.853C12.6063 12.7872 12.7358 12.7526 12.8677 12.7528H17.8078C17.9218 12.7528 18.0342 12.7788 18.1367 12.8288C18.2391 12.8788 18.3287 12.9515 18.3989 13.0413C18.469 13.1311 18.5177 13.2358 18.5414 13.3472C18.565 13.4587 18.5629 13.5741 18.5353 13.6847C18.1629 15.1347 17.3185 16.4196 16.1352 17.3367C14.9519 18.2538 13.4971 18.7511 12 18.75Z" fill="#DA0D1E"/>
</svg>
