<svg width="24" height="24" viewBox="0 0 24 24" fill="none" xmlns="http://www.w3.org/2000/svg">
<path d="M5.25 5.25L6.1875 20.25C6.23203 21.1167 6.8625 21.75 7.6875 21.75H16.3125C17.1408 21.75 17.7595 21.1167 17.8125 20.25L18.75 5.25" stroke="#242424" stroke-linecap="round" stroke-linejoin="round"/>
<path d="M3.75 5.25H20.25" stroke="#242424" stroke-miterlimit="10" stroke-linecap="round"/>
<path d="M9 5.24991V3.37491C8.99957 3.22705 9.02838 3.08057 9.08476 2.94388C9.14114 2.8072 9.22399 2.683 9.32854 2.57845C9.4331 2.4739 9.55729 2.39105 9.69398 2.33467C9.83066 2.27828 9.97715 2.24948 10.125 2.24991H13.875C14.0229 2.24948 14.1694 2.27828 14.306 2.33467C14.4427 2.39105 14.5669 2.4739 14.6715 2.57845C14.776 2.683 14.8589 2.8072 14.9153 2.94388C14.9716 3.08057 15.0005 3.22705 15 3.37491V5.24991" stroke="#242424" stroke-linecap="round" stroke-linejoin="round"/>
<path d="M12 8.25V18.75" stroke="#242424" stroke-linecap="round" stroke-linejoin="round"/>
<path d="M8.625 8.25L9 18.75" stroke="#242424" stroke-linecap="round" stroke-linejoin="round"/>
<path d="M15.375 8.25L15 18.75" stroke="#242424" stroke-linecap="round" stroke-linejoin="round"/>
</svg>
